<svg xmlns="http://www.w3.org/2000/svg" width="23.338" height="16.636" viewBox="0 0 23.338 16.636"><path d="M11.169,15.636c-.07,0-7.006-.005-8.727-.467A2.8,2.8,0,0,1,.467,13.2,29.252,29.252,0,0,1,0,7.818,29.241,29.241,0,0,1,.467,2.442,2.8,2.8,0,0,1,2.442.467C4.164.005,11.1,0,11.169,0s7,.005,8.727.467a2.8,2.8,0,0,1,1.975,1.975,29.241,29.241,0,0,1,.467,5.376,29.252,29.252,0,0,1-.467,5.377A2.8,2.8,0,0,1,19.9,15.17C18.174,15.631,11.239,15.636,11.169,15.636ZM8.935,4.468v6.7l5.8-3.351Z" transform="translate(0.5 0.5)" fill="#fff" stroke="rgba(0,0,0,0)" stroke-miterlimit="10" stroke-width="1"/></svg>