<svg xmlns="http://www.w3.org/2000/svg" width="20.803" height="20.803" viewBox="0 0 20.803 20.803"><path d="M5.79,19.8A5.8,5.8,0,0,1,0,14.013V5.79A5.8,5.8,0,0,1,5.79,0h8.223A5.8,5.8,0,0,1,19.8,5.79v8.223a5.8,5.8,0,0,1-5.79,5.79ZM1.846,5.79v8.223A3.949,3.949,0,0,0,5.79,17.957h8.223a3.948,3.948,0,0,0,3.944-3.944V5.79a3.948,3.948,0,0,0-3.944-3.944H5.79A3.949,3.949,0,0,0,1.846,5.79ZM4.783,9.9A5.119,5.119,0,1,1,9.9,15.02,5.124,5.124,0,0,1,4.783,9.9Zm1.846,0A3.272,3.272,0,1,0,9.9,6.628,3.275,3.275,0,0,0,6.629,9.9ZM13.958,4.62a1.234,1.234,0,1,1,1.234,1.234A1.234,1.234,0,0,1,13.958,4.62Z" transform="translate(0.5 0.5)" fill="#fff" stroke="rgba(0,0,0,0)" stroke-miterlimit="10" stroke-width="1"/></svg>