<svg xmlns="http://www.w3.org/2000/svg" width="22.367" height="18.178" viewBox="0 0 22.367 18.178"><path d="M82.034,116.589a12.968,12.968,0,0,0,13.057-13.057c0-.2,0-.4-.013-.593a9.338,9.338,0,0,0,2.289-2.376,9.16,9.16,0,0,1-2.635.722,4.6,4.6,0,0,0,2.018-2.538,9.2,9.2,0,0,1-2.914,1.114,4.593,4.593,0,0,0-7.82,4.185,13.028,13.028,0,0,1-9.459-4.795,4.593,4.593,0,0,0,1.421,6.126A4.555,4.555,0,0,1,75.9,104.8c0,.019,0,.038,0,.059a4.591,4.591,0,0,0,3.682,4.5,4.582,4.582,0,0,1-2.072.079,4.594,4.594,0,0,0,4.287,3.187,9.209,9.209,0,0,1-5.7,1.964A9.333,9.333,0,0,1,75,114.528a12.992,12.992,0,0,0,7.034,2.061" transform="translate(-75 -98.411)" fill="#fff"/></svg>