<svg xmlns="http://www.w3.org/2000/svg" width="32.034" height="49.349" viewBox="0 0 32.034 49.349"><path d="M-370.268-.049a3.589,3.589,0,0,0-3.868-1.808A7.424,7.424,0,0,0-378.528.218a3.487,3.487,0,0,0-.883,4.637c-1.444.627-2.643.172-3.605-1.285a34.984,34.984,0,0,0-2.766-3.934c-.587-.667-1.21-1.253-3.682-2.493-.125-.2-.256-.392-.4-.585a17.234,17.234,0,0,1-1.559-2.347,2.789,2.789,0,0,1,1.469-4.219,32.276,32.276,0,0,1,3.4-.874c.514-.152,1.208-.369,1.416-.768.8-1.532,1.442-3.151,2.257-5-5.184-.115-8.625,1.852-10.249,6.787a7.271,7.271,0,0,1,2.122-8.35c2.6-2.258,5.783-3.052,9.084-3.558.58-.089,1.436-.3,1.629-.7,1.935-4.077,3.758-8.207,5.654-12.412a4.745,4.745,0,0,0-.852-.256,25.907,25.907,0,0,0-15.878,3.816c-8.554,5.472-10.351,14.606-4.433,22.856a49.932,49.932,0,0,0,4.593,5.113c1.722,1.808,1.97,3.623.635,5.434-2.36-1.833-4.22-1.927-6.742-.256a10.605,10.605,0,0,0-4.3,5.451c-.845,2.425-.349,4.742,1.278,5.967,1.737,1.308,3.907,1.222,6.067-.333a15.451,15.451,0,0,0,5.9-9.161,8.644,8.644,0,0,0,.268-2.186l.024.066c.814-.22,1.643-.582,3.435,1.42.435.487.927.933,1.356,1.432a5.754,5.754,0,0,0,4.664,2.146,10.809,10.809,0,0,0,7.172-2.586A3.4,3.4,0,0,0-370.268-.049Z" transform="translate(402.02 35.2)" fill="#fff"/></svg>