<svg xmlns="http://www.w3.org/2000/svg" width="208.632" height="31.292" viewBox="0 0 208.632 31.292"><g transform="translate(-20 -9.893)"><path d="M-381.887-12.911a2.276,2.276,0,0,0-2.453-1.147,4.708,4.708,0,0,0-2.785,1.316,2.211,2.211,0,0,0-.56,2.941,1.707,1.707,0,0,1-2.286-.815,22.182,22.182,0,0,0-1.754-2.495,6.54,6.54,0,0,0-2.335-1.581c-.079-.125-.163-.249-.253-.371a10.928,10.928,0,0,1-.989-1.488,1.769,1.769,0,0,1,.932-2.675,20.466,20.466,0,0,1,2.156-.554c.326-.1.766-.234.9-.487.509-.972.914-2,1.431-3.169-3.287-.073-5.469,1.174-6.5,4.3a4.61,4.61,0,0,1,1.346-5.294,10.9,10.9,0,0,1,5.76-2.256c.368-.057.91-.189,1.033-.447,1.227-2.585,2.383-5.2,3.585-7.87a3.009,3.009,0,0,0-.54-.163,16.427,16.427,0,0,0-10.068,2.419c-5.424,3.47-6.563,9.262-2.811,14.493a31.66,31.66,0,0,0,2.913,3.242c1.092,1.146,1.249,2.3.4,3.446a3.16,3.16,0,0,0-4.275-.163,6.725,6.725,0,0,0-2.725,3.457,3.251,3.251,0,0,0,.811,3.783,3.078,3.078,0,0,0,3.847-.211,9.8,9.8,0,0,0,3.742-5.809,5.481,5.481,0,0,0,.17-1.386l.015.042c.516-.139,1.042-.369,2.178.9.276.309.588.592.86.908a3.649,3.649,0,0,0,2.958,1.361,6.854,6.854,0,0,0,4.548-1.64A2.154,2.154,0,0,0-381.887-12.911Z" transform="translate(422.02 45.093)" fill="#cb0000"/><text transform="translate(46.632 28.055)" font-size="13" font-family="YuGo-Bold, YuGothic" font-weight="700"><tspan x="0" y="0">きたむらミュージックスクール</tspan></text></g></svg>