<svg xmlns="http://www.w3.org/2000/svg" width="20.315" height="19.356" viewBox="0 0 20.315 19.356"><g transform="translate(-377.059 -256.905)"><g transform="translate(377.059 256.905)"><path d="M397.374,265.148c0-4.545-4.556-8.243-10.157-8.243s-10.157,3.7-10.157,8.243c0,4.075,3.614,7.487,8.495,8.133.331.071.781.218.9.5a2.09,2.09,0,0,1,.033.919s-.119.716-.145.87c-.044.257-.2,1,.88.547a32.8,32.8,0,0,0,7.981-5.9h0a7.334,7.334,0,0,0,2.177-5.072" transform="translate(-377.059 -256.905)" fill="#fff"/><g transform="translate(3.332 6.046)"><path d="M408.867,282.914h-.713a.2.2,0,0,0-.2.2v4.426a.2.2,0,0,0,.2.2h.713a.2.2,0,0,0,.2-.2v-4.426a.2.2,0,0,0-.2-.2" transform="translate(-404.106 -282.914)" fill="#00b900"/><path d="M419.717,282.914H419a.2.2,0,0,0-.2.2v2.629L416.778,283a.213.213,0,0,0-.015-.02h0l-.012-.012,0,0-.01-.009-.005,0-.01-.007-.006,0-.01-.006-.006,0-.011,0-.007,0-.012,0-.007,0-.011,0H415.9a.2.2,0,0,0-.2.2v4.426a.2.2,0,0,0,.2.2h.713a.2.2,0,0,0,.2-.2v-2.629l2.031,2.743a.2.2,0,0,0,.05.049h0l.012.007.006,0,.009,0,.01,0,.006,0,.013,0h0a.2.2,0,0,0,.051.007h.713a.2.2,0,0,0,.2-.2v-4.426a.2.2,0,0,0-.2-.2" transform="translate(-410.051 -282.914)" fill="#00b900"/><path d="M394.436,286.626H392.5v-3.515a.2.2,0,0,0-.2-.2h-.713a.2.2,0,0,0-.2.2v4.425h0a.2.2,0,0,0,.055.137l0,0,0,0a.2.2,0,0,0,.137.055h2.846a.2.2,0,0,0,.2-.2v-.713a.2.2,0,0,0-.2-.2" transform="translate(-391.392 -282.913)" fill="#00b900"/><path d="M439.841,284.022a.2.2,0,0,0,.2-.2v-.713a.2.2,0,0,0-.2-.2h-2.847a.2.2,0,0,0-.137.056l0,0,0,0a.2.2,0,0,0-.055.136h0v4.425h0a.2.2,0,0,0,.055.137l0,0,0,0a.2.2,0,0,0,.137.055h2.847a.2.2,0,0,0,.2-.2v-.713a.2.2,0,0,0-.2-.2h-1.936v-.748h1.936a.2.2,0,0,0,.2-.2v-.712a.2.2,0,0,0-.2-.2h-1.936v-.748Z" transform="translate(-426.241 -282.914)" fill="#00b900"/></g></g></g></svg>