<svg xmlns="http://www.w3.org/2000/svg" width="20.991" height="17.059" viewBox="0 0 20.991 17.059"><path d="M81.6,115.47a12.17,12.17,0,0,0,12.253-12.253c0-.186,0-.372-.012-.557a8.763,8.763,0,0,0,2.148-2.23,8.6,8.6,0,0,1-2.473.678,4.321,4.321,0,0,0,1.894-2.382,8.63,8.63,0,0,1-2.734,1.045,4.31,4.31,0,0,0-7.339,3.928,12.227,12.227,0,0,1-8.877-4.5,4.31,4.31,0,0,0,1.333,5.749,4.275,4.275,0,0,1-1.95-.539c0,.018,0,.036,0,.055a4.308,4.308,0,0,0,3.455,4.222,4.3,4.3,0,0,1-1.945.074,4.311,4.311,0,0,0,4.023,2.991,8.642,8.642,0,0,1-5.349,1.843,8.758,8.758,0,0,1-1.027-.06,12.192,12.192,0,0,0,6.6,1.934" transform="translate(-75 -98.411)" fill="#fff"/></svg>