<svg xmlns="http://www.w3.org/2000/svg" width="21.586" height="19.238" viewBox="0 0 21.586 19.238"><path d="M71.909,101.591h-17.5A2.037,2.037,0,0,0,52.33,103.6v6.476a10.793,10.793,0,0,0,21.586,0V103.6A2,2,0,0,0,71.909,101.591ZM69.3,109.619l-5.15,4.847a1.348,1.348,0,0,1-.985.417,1.454,1.454,0,0,1-1.06-.417l-5.075-4.847a1.532,1.532,0,0,1,0-2.121,1.486,1.486,0,0,1,2.083,0l4.052,3.9,4.128-3.9a1.4,1.4,0,0,1,2.007,0A1.612,1.612,0,0,1,69.3,109.619Z" transform="translate(-52.33 -101.591)" fill="#fff"/></svg>