<svg xmlns="http://www.w3.org/2000/svg" width="16.881" height="14.067" viewBox="0 0 16.881 14.067"><g transform="translate(-203.636 -226.364)"><path d="M213.82,233.9a3.338,3.338,0,0,0-2.34-1.055,3.82,3.82,0,0,0,1.944-1.071,2.8,2.8,0,0,0,.608-1.9,3.4,3.4,0,0,0-.406-1.675,3.021,3.021,0,0,0-1.188-1.153,5.054,5.054,0,0,0-1.622-.529,24.5,24.5,0,0,0-3.324-.151h-3.857v14.067h3.974a25.786,25.786,0,0,0,3.452-.163,5.607,5.607,0,0,0,1.771-.552,3.247,3.247,0,0,0,1.356-1.326,4.024,4.024,0,0,0,.474-1.986A3.61,3.61,0,0,0,213.82,233.9Zm-6.622-4.417h.823a3.9,3.9,0,0,1,1.921.321,1.235,1.235,0,0,1,.492,1.114,1.154,1.154,0,0,1-.526,1.077,4.223,4.223,0,0,1-1.944.31H207.2Zm3.266,8.067a3.918,3.918,0,0,1-1.926.343H207.2v-3.073h1.4a3.67,3.67,0,0,1,1.915.351,1.383,1.383,0,0,1,.519,1.239A1.227,1.227,0,0,1,210.464,237.55Z" transform="translate(0 0)" fill="#fff"/><path d="M420.57,396.061a1.782,1.782,0,1,0,1.782,1.782A1.781,1.781,0,0,0,420.57,396.061Z" transform="translate(-201.835 -159.194)" fill="#fff"/><rect width="3.095" height="9.378" transform="translate(217.188 226.364)" fill="#fff"/></g></svg>